<svg width="371" height="436" viewBox="0 0 371 436" fill="none" xmlns="http://www.w3.org/2000/svg">
<path d="M36.6646 337L210.187 434.46L334.328 366.306V155.028L369.992 101.186L196.47 1L160.805 51.434L125.14 1L0.999969 73.9248L13.6614 92.7794L0.999969 85.511L36.6646 127.767V337Z" fill="#E0E0EB"/>
<path d="M210.187 225.227V434.46M210.187 225.227L36.6646 127.767M210.187 225.227L334.328 155.028M210.187 225.227L173.151 184.334L160.805 177.247M210.187 225.227L242.422 177.247L369.992 101.186M210.187 434.46L36.6646 337V127.767M210.187 434.46L334.328 366.306V155.028M36.6646 127.767L0.999968 85.511L13.6614 92.7794M334.328 155.028L369.992 101.186M160.805 51.434L125.14 1L0.999968 73.9248L13.6614 92.7794M160.805 51.434V177.247M160.805 51.434L306.893 137.308M160.805 51.434L196.47 1L369.992 101.186M160.805 51.434L53.588 115.699M160.805 177.247L53.588 115.699M13.6614 92.7794L53.588 115.699" stroke="#9797A6"/>
<path d="M99.4075 358.391C100.011 358.746 100.505 358.391 100.505 357.573C100.505 357.355 100.368 357.11 100.176 357.001C99.9836 356.892 99.8465 357.001 99.8465 357.192C99.8465 357.573 99.6544 357.764 99.4075 357.628C99.1606 357.492 98.9686 357.055 98.9686 356.674V349.231C98.9686 349.013 98.8314 348.768 98.6393 348.659C98.4473 348.55 98.3101 348.659 98.3101 348.85V356.292C98.3101 357.083 98.804 358.037 99.4075 358.364V358.391Z" fill="#9797A6"/>
<path d="M103.331 353.13H103.386C102.7 352.176 101.904 351.739 101.218 351.93H101.054L100.944 351.767C100.258 350.785 99.4626 350.349 98.7768 350.513H98.6396L98.5024 350.349C97.8166 349.368 97.021 348.931 96.3351 349.095L96.2254 349.15L96.0608 348.931C95.3749 347.95 94.5793 347.514 93.8935 347.677H93.9483L93.8935 347.541C93.8935 345.006 96.0059 344.188 98.6396 345.687C101.246 347.187 103.386 350.458 103.386 352.993L103.331 353.102V353.13Z" fill="#9797A6"/>
<path d="M95.7594 340.562C95.8417 340.78 96.0063 340.944 96.1435 340.944C96.2806 340.944 96.3629 340.78 96.2806 340.562C96.1983 340.344 95.7594 339.799 95.7594 339.799C95.7594 339.799 95.6771 340.344 95.7594 340.562Z" fill="#9797A6"/>
<path d="M94.9088 340.562C94.9911 340.78 95.1557 340.944 95.2929 340.944C95.4301 340.944 95.5124 340.78 95.4301 340.562C95.3477 340.344 94.9088 339.799 94.9088 339.799C94.9088 339.799 94.8265 340.344 94.9088 340.562Z" fill="#9797A6"/>
<path d="M96.774 342.334C96.8563 342.552 97.021 342.716 97.1581 342.716C97.2953 342.716 97.3776 342.552 97.2953 342.334C97.213 342.116 96.774 341.571 96.774 341.571C96.774 341.571 96.6917 342.116 96.774 342.334Z" fill="#9797A6"/>
<path d="M95.9244 342.334C96.0067 342.552 96.1713 342.716 96.3085 342.716C96.4457 342.716 96.528 342.552 96.4457 342.334C96.3634 342.116 95.9244 341.571 95.9244 341.571C95.9244 341.571 95.8421 342.116 95.9244 342.334Z" fill="#9797A6"/>
<path d="M95.0738 342.307C95.1561 342.525 95.3207 342.689 95.4579 342.689C95.5951 342.689 95.6774 342.525 95.5951 342.307C95.5128 342.089 95.0738 341.544 95.0738 341.544C95.0738 341.544 94.9915 342.089 95.0738 342.307Z" fill="#9797A6"/>
<path d="M96.9391 344.106C97.0214 344.324 97.186 344.488 97.3231 344.488C97.4603 344.488 97.5426 344.324 97.4603 344.106C97.378 343.888 96.9391 343.343 96.9391 343.343C96.9391 343.343 96.8568 343.888 96.9391 344.106Z" fill="#9797A6"/>
<path d="M96.1158 344.079C96.1981 344.297 96.3627 344.461 96.4999 344.461C96.6371 344.461 96.7194 344.297 96.6371 344.079C96.5548 343.861 96.1158 343.316 96.1158 343.316C96.1158 343.316 96.0335 343.861 96.1158 344.079Z" fill="#9797A6"/>
<path d="M106.156 364.934C106.54 364.934 106.897 364.852 107.226 364.661C108.049 364.198 108.516 363.162 108.516 361.853V348.086C108.516 345.824 107.144 343.261 105.416 342.252L92.5488 334.892C91.6709 334.374 90.7656 334.319 90.0523 334.755C89.2293 335.219 88.7629 336.255 88.7629 337.563V351.33C88.7629 353.593 90.1346 356.156 91.863 357.164L104.73 364.525C105.223 364.798 105.717 364.961 106.184 364.961L106.156 364.934ZM91.1222 335.846C91.3691 335.846 91.6435 335.955 91.863 336.091L104.73 343.452C106.019 344.188 107.116 346.314 107.116 348.059V361.826C107.116 362.617 106.897 363.217 106.513 363.435C106.156 363.653 105.662 363.435 105.416 363.298L92.5488 355.938C91.2594 355.202 90.162 353.075 90.162 351.33V337.563C90.162 336.773 90.3815 336.173 90.7656 335.955C90.8753 335.9 90.9851 335.873 91.1222 335.873V335.846Z" fill="#9797A6"/>
<path d="M78.201 343.479L79.1338 343.997V333.174L78.201 332.629V343.479Z" fill="#9797A6"/>
<path d="M80.4502 334.51L78.667 329.957L76.8837 332.465L80.4502 334.51Z" fill="#9797A6"/>
<path d="M74.0584 341.08L74.9912 341.625V330.775L74.0584 330.23V341.08Z" fill="#9797A6"/>
<path d="M76.2803 332.111L74.5245 327.586L72.7412 330.094L76.2803 332.111Z" fill="#9797A6"/>
<path d="M73.1255 342.334L80.0664 346.314V345.251L73.1255 341.244V342.334Z" fill="#9797A6"/>
<path d="M84.0987 351.794C84.4827 351.794 84.8394 351.712 85.1686 351.521C85.9916 351.058 86.458 350.022 86.458 348.713V334.946C86.458 332.684 85.0863 330.121 83.3579 329.112L70.5186 321.752C69.6407 321.234 68.7354 321.179 68.0221 321.615C67.1991 322.079 66.7052 323.115 66.7052 324.423V338.19C66.7052 340.453 68.077 343.016 69.8053 344.024L82.6446 351.385C83.1385 351.658 83.6323 351.821 84.0987 351.821V351.794ZM69.0646 322.733C69.339 322.733 69.6133 322.869 69.8053 322.951L82.6446 330.312C83.934 331.048 85.0314 333.174 85.0314 334.919V348.686C85.0314 349.477 84.812 350.076 84.4279 350.295C84.0712 350.513 83.6048 350.295 83.3305 350.158L70.4912 342.798C69.2018 342.062 68.1044 339.935 68.1044 338.19V324.423C68.1044 323.633 68.3239 323.033 68.708 322.842C68.8177 322.788 68.9274 322.76 69.0646 322.76V322.733Z" fill="#9797A6"/>
<path d="M54.4151 324.341L54.6894 324.505C55.6771 325.078 56.4727 324.478 56.4727 323.169V317.717L52.6593 315.536V320.988C52.6593 322.297 53.4549 323.796 54.4425 324.369L54.4151 324.341Z" fill="#9797A6"/>
<path d="M54.5522 331.266C55.5947 331.866 56.4727 332.82 56.4727 333.365L52.6593 331.184C52.6593 330.639 53.5097 330.666 54.5797 331.266H54.5522Z" fill="#9797A6"/>
<path d="M54.196 331.429L54.8818 331.838V324.205L54.196 323.796V331.429Z" fill="#9797A6"/>
<path d="M62.0693 339.69C62.4534 339.69 62.81 339.608 63.1392 339.417C63.9622 338.954 64.4561 337.918 64.4561 336.609V322.842C64.4561 320.579 63.0843 318.017 61.356 317.035L48.5167 309.647C47.6114 309.129 46.7335 309.102 46.0202 309.511C45.1971 309.975 44.7308 311.011 44.7308 312.319V326.086C44.7308 328.349 46.1025 330.912 47.8308 331.92L60.6701 339.281C61.1639 339.553 61.6578 339.717 62.1241 339.717L62.0693 339.69ZM47.0352 310.602C47.3096 310.602 47.6114 310.738 47.776 310.847L60.6153 318.208C61.9047 318.944 63.002 321.07 63.002 322.815V336.582C63.002 337.373 62.7826 337.972 62.3985 338.19C62.0418 338.408 61.5755 338.19 61.3011 338.054L48.4618 330.666C47.1724 329.93 46.075 327.804 46.075 326.059V312.292C46.075 311.501 46.2945 310.901 46.6786 310.711C46.7883 310.656 46.8981 310.629 47.0352 310.629V310.602Z" fill="#9797A6"/>
</svg>
