<svg width="726" height="503" viewBox="0 0 726 503" fill="none" xmlns="http://www.w3.org/2000/svg">
<path d="M229.56 104.097L288.137 69.8023L725.234 335.426V349.059L684.336 372.916L237.867 119.86L229.56 104.097Z" fill="#E0E0EB"/>
<path d="M229.56 104.097L288.137 69.8023L725.234 335.426M229.56 104.097L237.867 119.86L684.336 372.916M229.56 104.097L684.336 360.774M684.336 372.916L725.234 349.059V335.426M684.336 372.916V360.774M725.234 335.426L684.336 360.774" stroke="#9797A6"/>
<path d="M1 168L41.0459 144.143L49.5663 149.057L244.684 36.7857L286.434 60.6428L295.806 66.6071L302.622 70.2158L324.776 81.9439V92.1684L302.622 104.949L281.321 92.1684V74.9795L101.424 178.963L248.944 264.037L443.635 149.057L483.681 172.062L475.161 177.06L483.681 182.911L502.852 193.561L483.681 207.847L463.232 196.055L300.452 293.742L448.321 379.018L634.918 271.097L641.735 276.209L674.112 296.232L678.372 300.066H682.633L725.235 277.913V324.776V335.852L684.707 360.348L641.735 336.917V321.598L479.847 417.115V418.5V466.214V478.995L438.949 502L1 249.796V237.867V180.781V168Z" fill="#E0E0EB"/>
<path d="M1 168L41.0459 144.143L92.7565 173.964M1 168L438.949 421.056M1 168V180.781M438.949 421.056L479.847 397.199M438.949 421.056V432.133M479.847 397.199V408.276M479.847 397.199L448.321 379.018M1 180.781L41.0459 203.764M1 180.781V237.867M438.949 432.133L396.347 407.682M438.949 432.133V443.209V490.071M438.949 432.133L479.847 408.276M479.847 408.276L674.112 296.232M479.847 408.276V417.115M41.0459 203.764V260.02M41.0459 203.764L83.648 228.215M41.0459 260.02L1 237.867M41.0459 260.02L83.648 237.867M41.0459 260.02L197.821 351.189M1 237.867V249.796L438.949 502M83.648 237.867V228.215M83.648 237.867L197.821 304.327M83.648 228.215L197.821 293.742M197.821 304.327V293.742M197.821 304.327V351.189M197.821 293.742L239.571 317.704M197.821 351.189L239.571 375.046M239.571 375.046V317.704M239.571 375.046L281.321 351.189M239.571 375.046L396.347 466.214M239.571 317.704L281.321 341.665M281.321 351.189V341.665M281.321 351.189L396.347 418.5M281.321 341.665L396.347 407.682M396.347 418.5V407.682M396.347 418.5V466.214M396.347 466.214L438.949 490.071M438.949 490.071L479.847 466.214M438.949 490.071V502M479.847 466.214V418.5V417.115M479.847 466.214V478.995L438.949 502M248.944 264.037L443.635 149.057L483.681 172.062L475.161 177.06M248.944 264.037L300.452 293.742M248.944 264.037L101.424 178.963M291.546 286.434L475.161 177.06M300.452 293.742L463.232 196.055M300.452 293.742L448.321 379.018M483.681 182.911L475.161 177.06M483.681 182.911V207.847M483.681 182.911L463.232 196.055M483.681 182.911L502.852 193.561L483.681 207.847M483.681 207.847L463.232 196.055M49.5663 149.057L244.684 36.7857L286.434 60.6428M286.434 60.6428L92.7565 173.964M286.434 60.6428L295.806 66.6071M92.7565 173.964L101.424 178.963M101.424 178.963L281.321 74.9795M295.806 66.6071L281.321 74.9795M295.806 66.6071L302.622 70.2158M682.633 300.066L725.235 277.913V324.776M682.633 300.066L684.707 347.781M682.633 300.066H678.372M684.707 360.348L725.235 335.852V324.776M684.707 360.348V347.781M684.707 360.348L641.735 336.917V321.598M684.707 347.781L725.235 324.776M448.321 379.018L634.918 271.097L641.735 276.209L674.112 296.232M674.112 296.232L678.372 300.066M281.321 74.9795V92.1684L302.622 104.949M302.622 104.949L324.776 92.1684V81.9439L302.622 70.2158M302.622 104.949V70.2158M479.847 417.115L641.735 321.598M678.372 300.066L641.735 321.598" stroke="#9797A6"/>
<path d="M75.9795 124.546L116.025 99.8367L552.27 354.597V366.525L512.224 388.679L75.9795 136.474V124.546Z" fill="#E0E0EB"/>
<path d="M75.9795 124.546L116.025 99.8367L552.27 354.597M75.9795 124.546V136.474L512.224 388.679M75.9795 124.546L512.224 376.75M512.224 388.679L552.27 366.525V354.597M512.224 388.679V376.75M552.27 354.597L512.224 376.75" stroke="#9797A6"/>
<path d="M159.479 76.8316L199.525 52.1225L635.77 306.883V318.811L595.724 340.964L159.479 88.7602V76.8316Z" fill="#E0E0EB"/>
<path d="M159.479 76.8316L199.525 52.1225L635.77 306.883M159.479 76.8316V88.7602L595.724 340.964M159.479 76.8316L595.724 329.036M595.724 340.964L635.77 318.811V306.883M595.724 340.964V329.036M635.77 306.883L595.724 329.036" stroke="#9797A6"/>
<path d="M242.979 25.7092L283.025 1L725.235 267.263V279.191L682.633 301.344L242.979 37.6378V25.7092Z" fill="#E0E0EB"/>
<path d="M242.979 25.7092L283.025 1L725.235 267.263M242.979 25.7092V37.6378L682.633 301.344M242.979 25.7092L682.633 289.416M682.633 301.344L725.235 279.191V267.263M682.633 301.344V289.416M725.235 267.263L682.633 289.416" stroke="#9797A6"/>
</svg>
